<svg width="1920" height="178" viewBox="0 0 1920 178" fill="none" xmlns="http://www.w3.org/2000/svg">
<path d="M0 81.8842H44.1885C108.872 81.8842 238.238 81.8842 367.604 65.8649C496.971 49.8456 626.337 17.807 755.703 33.8263C885.07 49.8456 1014.44 113.923 1143.8 108.616C1273.17 102.91 1402.53 28.8202 1531.9 7.09406C1661.27 -14.2316 1790.63 17.807 1855.32 33.8263L1920 49.8456V178H1855.32C1790.63 178 1661.27 178 1531.9 178C1402.53 178 1273.17 178 1143.8 178C1014.44 178 885.07 178 755.703 178C626.337 178 496.971 178 367.604 178C238.238 178 108.872 178 44.1885 178H0V81.8842Z" fill="#151515"/>
</svg>
