<svg width="1905" height="178" viewBox="0 0 1905 178" fill="none" xmlns="http://www.w3.org/2000/svg">
<path d="M0 81.8842H43.8433C108.021 81.8842 236.377 81.8842 364.732 65.8649C493.088 49.8456 621.444 17.807 749.799 33.8263C878.155 49.8456 1006.51 113.923 1134.87 108.616C1263.22 102.91 1391.58 28.8202 1519.93 7.09406C1648.29 -14.2316 1776.64 17.807 1840.82 33.8263L1905 49.8456V178H1840.82C1776.64 178 1648.29 178 1519.93 178C1391.58 178 1263.22 178 1134.87 178C1006.51 178 878.155 178 749.799 178C621.444 178 493.088 178 364.732 178C236.377 178 108.021 178 43.8433 178H0V81.8842Z" fill="#151515"/>
</svg>
