<svg width="1905" height="178" viewBox="0 0 1905 178" fill="none" xmlns="http://www.w3.org/2000/svg">
<path d="M1905 96.1159L1861.16 96.1159C1796.98 96.1159 1668.62 96.1159 1540.27 112.135C1411.91 128.155 1283.56 160.193 1155.2 144.174C1026.85 128.154 898.489 64.0772 770.134 69.3836C641.778 75.0905 513.423 149.18 385.067 170.906C256.711 192.232 128.356 160.193 64.1779 144.174L4.35764e-06 128.154L1.55613e-05 -5.97289e-05L64.1779 -5.41183e-05C128.356 -4.85077e-05 256.711 -3.72864e-05 385.067 -2.60652e-05C513.423 -1.4844e-05 641.778 -3.62283e-06 770.134 7.59837e-06C898.489 1.88196e-05 1026.85 3.00408e-05 1155.2 4.1262e-05C1283.56 5.24832e-05 1411.91 6.37044e-05 1540.27 7.49256e-05C1668.62 8.61468e-05 1796.98 9.7368e-05 1861.16 0.000102979L1905 0.000106812L1905 96.1159Z" fill="#091C27"/>
</svg>
