<svg width="1919" height="178" viewBox="0 0 1919 178" fill="none" xmlns="http://www.w3.org/2000/svg">
<path d="M1919 96.1159L1874.81 96.1159C1810.13 96.1159 1680.76 96.1159 1551.4 112.135C1422.03 128.155 1292.66 160.193 1163.3 144.174C1033.93 128.154 904.564 64.0772 775.198 69.3836C645.832 75.0905 516.465 149.18 387.099 170.906C257.733 192.232 128.366 160.193 63.6832 144.174L-0.999996 128.154L-0.999984 -6.10402e-05L63.6832 -5.53854e-05C128.366 -4.97306e-05 257.733 -3.84211e-05 387.099 -2.71115e-05C516.465 -1.5802e-05 645.832 -4.4924e-06 775.198 6.81717e-06C904.564 1.81267e-05 1033.93 2.94363e-05 1163.3 4.07459e-05C1292.66 5.20554e-05 1422.03 6.3365e-05 1551.4 7.46745e-05C1680.76 8.59841e-05 1810.13 9.72937e-05 1874.81 0.000102948L1919 0.000106812L1919 96.1159Z" fill="#091C27"/>
</svg>
